<svg width="24" height="24" viewBox="0 0 24 24" fill="none" xmlns="http://www.w3.org/2000/svg">
<g clip-path="url(#clip0_2178_21390)">
<path d="M19.6537 17.3411H4.34906C4.11523 17.3411 3.89679 17.2256 3.76514 17.0324C1.74585 14.0712 1.59094 8.375 1.57922 7.52942C1.57849 7.49628 1.57812 7.46277 1.57812 7.42944C1.57812 7.03961 1.8938 6.72339 2.28363 6.72266H2.2851C2.67419 6.72266 2.99042 7.03741 2.99188 7.4267C2.99188 7.43146 2.99207 7.47321 2.99371 7.54718C3.05597 9.55823 4.71143 11.1749 6.7373 11.1749C8.80255 11.1749 10.4827 9.49469 10.4827 7.42944C10.4827 7.03906 10.7993 6.72266 11.1895 6.72266H12.8131C13.2035 6.72266 13.5199 7.03906 13.5199 7.42944C13.5199 9.49469 15.2003 11.1749 17.2655 11.1749C19.2932 11.1749 20.9498 9.5553 21.0093 7.54169C21.0106 7.47101 21.0109 7.43146 21.0109 7.42688C21.0124 7.03741 21.3284 6.72266 21.7177 6.72266H21.719C22.1088 6.72339 22.4245 7.03961 22.4245 7.42944C22.4245 7.46295 22.4241 7.49628 22.4236 7.5296C22.4117 8.375 22.2568 14.0714 20.2377 17.0326C20.106 17.2256 19.8874 17.3411 19.6537 17.3411Z" fill="#FFF780"/>
<path d="M21.7174 6.72266C21.717 6.72266 21.7167 6.72266 21.7161 6.72266C21.327 6.72266 21.0108 7.03741 21.0093 7.4267C21.0093 7.43146 21.0092 7.47101 21.0077 7.54169C20.9482 9.55511 19.2916 11.1749 17.2639 11.1749C15.1987 11.1749 13.5185 9.49469 13.5185 7.42944C13.5185 7.03906 13.2019 6.72266 12.8117 6.72266H12V17.3409H19.6522C19.886 17.3409 20.1044 17.2254 20.2361 17.0324C22.2554 14.0712 22.4103 8.37482 22.422 7.52942C22.4227 7.49628 22.4231 7.46277 22.4231 7.42944C22.4229 7.03961 22.1072 6.72339 21.7174 6.72266Z" fill="#FFC02E"/>
<path d="M11.9985 4.3125C10.7393 4.3125 9.71484 5.33698 9.71484 6.59619C9.71484 7.85541 10.7393 8.8797 11.9985 8.8797C13.2578 8.8797 14.2822 7.85541 14.2822 6.59619C14.2822 5.33698 13.2578 4.3125 11.9985 4.3125Z" fill="#FFC02E"/>
<path d="M12 4.3125V8.87988C13.2592 8.8797 14.2835 7.85541 14.2835 6.59619C14.2835 5.33698 13.259 4.31268 12 4.3125Z" fill="#FFA73B"/>
<path d="M2.28369 6.07422C1.02448 6.07422 0 7.09869 0 8.35791C0 9.61713 1.02448 10.6416 2.28369 10.6416C3.54291 10.6416 4.5672 9.61713 4.5672 8.35791C4.5672 7.09869 3.54291 6.07422 2.28369 6.07422Z" fill="#FFC02E"/>
<path d="M21.7171 6.07422C20.4579 6.07422 19.4336 7.09869 19.4336 8.35791C19.4336 9.61694 20.4579 10.6414 21.7171 10.6414C22.9763 10.6414 24.0008 9.61694 24.0008 8.35791C24.0008 7.09869 22.9763 6.07422 21.7171 6.07422Z" fill="#FFA73B"/>
<path d="M19.6521 19.6622H4.34741C3.95703 19.6622 3.64062 19.3458 3.64062 18.9554V16.8477H20.3589V18.9554C20.3589 19.3458 20.0425 19.6622 19.6521 19.6622Z" fill="#FFC02E"/>
<path d="M12 19.6622H19.6522C20.0425 19.6622 20.3589 19.3458 20.3589 18.9554V16.8477H12V19.6622Z" fill="#FFA73B"/>
</g>
<defs>
<clipPath id="clip0_2178_21390">
<rect width="24" height="24" fill="white"/>
</clipPath>
</defs>
</svg>
