<svg width="16" height="16" viewBox="0 0 16 16" fill="none" xmlns="http://www.w3.org/2000/svg">
<path d="M8.00187 9.4463C6.58187 9.4463 5.42188 8.29297 5.42188 6.8663C5.42188 5.43964 6.58187 4.29297 8.00187 4.29297C9.42188 4.29297 10.5819 5.4463 10.5819 6.87297C10.5819 8.29964 9.42188 9.4463 8.00187 9.4463ZM8.00187 5.29297C7.13521 5.29297 6.42188 5.99964 6.42188 6.87297C6.42188 7.7463 7.12854 8.45297 8.00187 8.45297C8.87521 8.45297 9.58187 7.7463 9.58187 6.87297C9.58187 5.99964 8.86854 5.29297 8.00187 5.29297Z" fill="#80011D"/>
<path d="M8.00098 1.18164H8.00781C10.3732 1.18166 13.0448 2.56605 13.7402 5.63574C14.5109 9.04042 12.4578 11.9331 10.5117 13.8066C9.80496 14.4825 8.89929 14.8223 8.00098 14.8223C7.10244 14.8222 6.19608 14.4829 5.48926 13.8066H5.49023C3.54433 11.9333 1.49171 9.03428 2.26855 5.62988V5.62891C2.96401 2.56618 5.63547 1.18169 8.00098 1.18164ZM8.00098 1.48242C6.02063 1.48246 3.44135 2.51033 2.63867 5.4082L2.56738 5.69434C1.85119 8.81849 3.65162 11.4994 5.36523 13.2471L5.70605 13.584C6.99471 14.8272 9.01425 14.8265 10.3027 13.583L10.3037 13.584C12.1 11.8549 14.198 9.02694 13.4482 5.69531V5.69434L13.376 5.40723C12.5664 2.50985 9.98097 1.48242 8.00098 1.48242Z" fill="#1C1C28" stroke="#80011D" stroke-width="0.698864"/>
</svg>
