<svg width="40" height="40" viewBox="0 0 40 40" fill="none" xmlns="http://www.w3.org/2000/svg">
<path d="M23.6951 37.9185C22.8496 37.9185 22.0942 37.3006 21.3605 36.7006C20.9121 36.3335 20.2976 35.831 20.0009 35.831C19.7046 35.831 19.0901 36.3335 18.6417 36.7006C17.838 37.3577 16.9263 38.1048 15.9226 37.8748C14.8867 37.6393 14.3796 36.5502 13.9321 35.5898C13.7088 35.1093 13.3705 34.3831 13.1301 34.2668C12.8751 34.1423 12.0834 34.3343 11.5596 34.4602C10.5401 34.7056 9.38505 34.9823 8.56839 34.331C7.7488 33.6764 7.76339 32.4843 7.77714 31.4331C7.7838 30.8968 7.7938 30.0868 7.6213 29.8702C7.45089 29.6568 6.66214 29.4881 6.14005 29.3764C5.10755 29.1556 3.93839 28.9052 3.48005 27.9552C3.02839 27.0198 3.55547 25.9589 4.01964 25.0231C4.26089 24.5381 4.62505 23.8043 4.5613 23.5231C4.5038 23.271 3.8763 22.7839 3.4613 22.4614C2.62089 21.8098 1.66797 21.0698 1.66797 19.9998C1.66797 18.9298 2.62089 18.1902 3.46172 17.5377C3.87672 17.2156 4.50422 16.7285 4.56172 16.476C4.62547 16.1948 4.2613 15.461 4.02047 14.9756C3.55589 14.0398 3.02922 12.9793 3.4813 12.0431C3.93964 11.0935 5.1088 10.8431 6.14089 10.6223C6.66297 10.5106 7.45172 10.3418 7.62172 10.1289C7.79505 9.91185 7.78505 9.10143 7.77839 8.56518C7.76505 7.51393 7.75047 6.32226 8.56964 5.66768C9.38589 5.01601 10.5417 5.29351 11.5609 5.53851C12.0855 5.66435 12.8763 5.85476 13.1309 5.73226C13.3717 5.61601 13.7096 4.89018 13.9334 4.40935C14.3805 3.44851 14.8871 2.35976 15.923 2.12435C16.9255 1.89685 17.8388 2.64101 18.6421 3.29851C19.0909 3.6656 19.7055 4.1681 20.0017 4.1681C20.298 4.1681 20.9126 3.6656 21.3609 3.29893C22.1651 2.64101 23.0763 1.89518 24.0805 2.12435C25.1159 2.35976 25.623 3.44893 26.0705 4.40976C26.2942 4.89018 26.6321 5.61643 26.873 5.73268C27.1284 5.8556 27.9188 5.66476 28.4426 5.53893C29.4621 5.29393 30.6176 5.01643 31.4342 5.6681C32.2538 6.32268 32.2392 7.51435 32.2255 8.56601C32.2188 9.10226 32.2088 9.91268 32.3813 10.1289C32.5517 10.3418 33.3405 10.511 33.8626 10.6227C34.8951 10.8435 36.0642 11.0935 36.5226 12.0435C36.9742 12.9793 36.4471 14.0402 35.983 14.976C35.7417 15.4614 35.3776 16.1948 35.4413 16.476C35.4988 16.7285 36.1263 17.2156 36.5413 17.5377C37.3817 18.1902 38.3346 18.9298 38.3346 19.9998C38.3346 21.0698 37.3817 21.8093 36.5409 22.4618C36.1259 22.7839 35.4984 23.2706 35.4409 23.5239C35.3771 23.8052 35.7413 24.5385 35.9821 25.0239C36.4467 25.9598 36.9734 27.0202 36.5213 27.9564C36.063 28.906 34.8938 29.1564 33.8617 29.3768C33.3396 29.4889 32.5509 29.6577 32.3805 29.8706C32.2076 30.0877 32.2176 30.8981 32.2242 31.4343C32.2376 32.4852 32.2521 33.6768 31.433 34.3314C30.6167 34.9831 29.4609 34.7052 28.4417 34.4606C27.9171 34.3348 27.1263 34.1435 26.8717 34.2673C26.6309 34.3831 26.293 35.1093 26.0692 35.5898C25.6221 36.551 25.1155 37.6398 24.0796 37.8752C23.9496 37.9048 23.8213 37.9185 23.6951 37.9185ZM12.8721 32.5623C13.2176 32.5623 13.5488 32.6181 13.8542 32.7652C14.6305 33.1393 15.0438 34.0273 15.4434 34.886C15.6413 35.311 16.053 36.1952 16.2917 36.2493C16.5138 36.2885 17.2388 35.6939 17.5863 35.4098C18.3355 34.7973 19.1096 34.1639 20.0009 34.1639C20.8921 34.1639 21.6667 34.7977 22.4155 35.4098C22.763 35.6939 23.4663 36.2768 23.7109 36.2493C23.9488 36.1948 24.3609 35.311 24.5584 34.886C24.9576 34.0273 25.3709 33.1402 26.1476 32.7652C26.9376 32.3839 27.8992 32.616 28.8305 32.8398C29.2784 32.9473 30.2121 33.1718 30.3921 33.0285C30.5751 32.8827 30.563 31.9181 30.5571 31.4548C30.5451 30.4998 30.5326 29.5127 31.0776 28.8302C31.6192 28.1518 32.5813 27.946 33.5121 27.7468C33.968 27.6493 34.9159 27.4464 35.0196 27.2318C35.1163 27.0306 34.6921 26.1756 34.4884 25.7648C34.0613 24.9043 33.6192 24.0143 33.8151 23.1543C34.0046 22.3202 34.7742 21.7227 35.518 21.1452C35.9205 20.8335 36.668 20.2535 36.668 19.9998C36.668 19.746 35.9205 19.166 35.5188 18.8539C34.7746 18.2764 34.0051 17.6793 33.8155 16.8448C33.6201 15.9848 34.0621 15.0948 34.4892 14.2343C34.693 13.8235 35.1176 12.9689 35.0205 12.7673C34.9167 12.5523 33.9688 12.3498 33.5134 12.2523C32.5826 12.0531 31.6201 11.8473 31.0784 11.1693C30.5338 10.4873 30.5463 9.49976 30.5584 8.54518C30.5642 8.08185 30.5763 7.11685 30.3934 6.97101C30.2142 6.82768 29.2801 7.05226 28.8313 7.15976C27.9005 7.38351 26.9388 7.61518 26.1484 7.23393C25.3721 6.85935 24.9588 5.97185 24.5592 5.11351C24.3613 4.68851 23.9501 3.80435 23.7109 3.75018C23.4817 3.7106 22.7634 4.3056 22.4159 4.58935C21.6671 5.20226 20.893 5.8356 20.0017 5.8356C19.1105 5.8356 18.3363 5.20185 17.5871 4.58935C17.2396 4.30518 16.5146 3.7131 16.2917 3.74976C16.0534 3.80393 15.6413 4.6881 15.4438 5.1131C15.0442 5.97143 14.6313 6.85893 13.8551 7.23351C13.0651 7.61435 12.1034 7.38351 11.1717 7.15935C10.7238 7.05143 9.78922 6.82726 9.61005 6.97018C9.42714 7.11643 9.43922 8.08101 9.44505 8.54435C9.45714 9.49935 9.46964 10.4868 8.92464 11.1685C8.38297 11.8468 7.42089 12.0527 6.49005 12.2518C6.03422 12.3493 5.0863 12.5523 4.98255 12.7668C4.88589 12.9681 5.31005 13.8231 5.5138 14.2339C5.94089 15.0943 6.38297 15.9843 6.18714 16.8443C5.99755 17.6785 5.22797 18.276 4.48422 18.8535C4.08214 19.166 3.33464 19.746 3.33464 19.9998C3.33464 20.2535 4.08214 20.8339 4.4838 21.1456C5.22797 21.7231 5.99755 22.3198 6.18714 23.1543C6.38255 24.0143 5.94047 24.9039 5.51339 25.7648C5.30964 26.1756 4.88505 27.0302 4.98214 27.2318C5.08589 27.4473 6.0338 27.6498 6.48964 27.7473C7.42005 27.9464 8.38255 28.1523 8.92422 28.8306C9.4688 29.5127 9.4563 30.4998 9.44422 31.4548C9.43839 31.9181 9.4263 32.8831 9.60922 33.0289C9.78839 33.1702 10.7226 32.9477 11.1713 32.8398C11.7417 32.7023 12.3246 32.5623 12.8721 32.5623ZM14.7571 26.4223L26.4238 14.7556C26.7492 14.4302 26.7492 13.9027 26.4238 13.5773C26.0984 13.2518 25.5709 13.2518 25.2455 13.5773L13.5788 25.2439C13.2534 25.5693 13.2534 26.0968 13.5788 26.4223C13.7417 26.5852 13.9546 26.6664 14.168 26.6664C14.3813 26.6664 14.5942 26.5852 14.7571 26.4223ZM15.8346 18.7498C14.2267 18.7498 12.918 17.4414 12.918 15.8331C12.918 14.2248 14.2267 12.9164 15.8346 12.9164C17.4426 12.9164 18.7513 14.2248 18.7513 15.8331C18.7513 17.4414 17.4426 18.7498 15.8346 18.7498ZM15.8346 14.5831C15.1455 14.5831 14.5846 15.1439 14.5846 15.8331C14.5846 16.5223 15.1455 17.0831 15.8346 17.0831C16.5238 17.0831 17.0846 16.5223 17.0846 15.8331C17.0846 15.1439 16.5238 14.5831 15.8346 14.5831ZM24.168 27.0831C22.5601 27.0831 21.2513 25.7743 21.2513 24.1664C21.2513 22.5585 22.5601 21.2498 24.168 21.2498C25.7759 21.2498 27.0846 22.5585 27.0846 24.1664C27.0846 25.7743 25.7759 27.0831 24.168 27.0831ZM24.168 22.9164C23.4788 22.9164 22.918 23.4773 22.918 24.1664C22.918 24.8556 23.4788 25.4164 24.168 25.4164C24.8571 25.4164 25.418 24.8556 25.418 24.1664C25.418 23.4773 24.8571 22.9164 24.168 22.9164Z" fill="#660033"/>
</svg>
