<svg width="16" height="16" viewBox="0 0 16 16" fill="none" xmlns="http://www.w3.org/2000/svg">
<path d="M9.9987 15.1654H5.9987C2.3787 15.1654 0.832031 13.6187 0.832031 9.9987L0.832031 5.9987C0.832031 2.3787 2.3787 0.832031 5.9987 0.832031L9.9987 0.832031C13.6187 0.832031 15.1654 2.3787 15.1654 5.9987L15.1654 9.9987C15.1654 10.1587 15.1654 10.3253 15.152 10.4787C15.132 10.6787 14.992 10.852 14.7987 10.912C14.6054 10.972 14.392 10.9054 14.2654 10.7454C13.792 10.1654 13.092 9.83203 12.332 9.83203C11.7654 9.83203 11.212 10.0254 10.772 10.3787C10.172 10.852 9.83203 11.5587 9.83203 12.332C9.83203 13.0854 10.1654 13.792 10.7454 14.2654C10.9054 14.392 10.9654 14.6054 10.912 14.7987C10.852 14.992 10.6854 15.132 10.4787 15.152C10.3254 15.1654 10.1587 15.1654 9.9987 15.1654ZM5.9987 1.83203C2.92536 1.83203 1.83203 2.92536 1.83203 5.9987L1.83203 9.9987C1.83203 13.072 2.92536 14.1654 5.9987 14.1654H9.34536C9.01202 13.6254 8.83203 12.992 8.83203 12.332C8.83203 11.252 9.31204 10.2587 10.152 9.59871C11.272 8.69205 12.972 8.61204 14.1654 9.34538L14.1654 5.9987C14.1654 2.92536 13.072 1.83203 9.9987 1.83203L5.9987 1.83203Z" fill="#80011D"/>
<path d="M1.67969 4.58789L14.3193 4.58789C14.3997 4.58789 14.4707 4.65793 14.4707 4.73828C14.4707 4.82167 14.4033 4.88867 14.3193 4.88867L1.67969 4.88867C1.59934 4.88867 1.5293 4.81863 1.5293 4.73828C1.5293 4.65793 1.59934 4.58789 1.67969 4.58789Z" fill="#660033" stroke="#80011D" stroke-width="0.698864"/>
<path d="M5.67969 5.14624C5.40635 5.14624 5.17969 4.91957 5.17969 4.64624L5.17969 1.40625C5.17969 1.13292 5.40635 0.90625 5.67969 0.90625C5.95302 0.90625 6.17969 1.13292 6.17969 1.40625V4.64624C6.17969 4.91957 5.95302 5.14624 5.67969 5.14624Z" fill="#80011D"/>
<path d="M10.3203 4.84627C10.047 4.84627 9.82031 4.61961 9.82031 4.34627V1.40625C9.82031 1.13292 10.047 0.90625 10.3203 0.90625C10.5936 0.90625 10.8203 1.13292 10.8203 1.40625V4.34627C10.8203 4.62627 10.6003 4.84627 10.3203 4.84627Z" fill="#660033"/>
<path d="M12.332 15.832C11.5187 15.832 10.732 15.552 10.112 15.0387C9.29871 14.3787 8.83203 13.392 8.83203 12.332C8.83203 11.252 9.31204 10.2587 10.152 9.59871C10.7654 9.10538 11.5387 8.83203 12.332 8.83203C13.392 8.83203 14.3787 9.29869 15.0387 10.1187C15.5454 10.732 15.832 11.5187 15.832 12.332C15.832 13.3254 15.3987 14.2854 14.6454 14.9587C13.992 15.5254 13.172 15.832 12.332 15.832ZM12.332 9.83203C11.7654 9.83203 11.212 10.0254 10.772 10.3787C10.172 10.852 9.83203 11.5587 9.83203 12.332C9.83203 13.0854 10.1654 13.792 10.7454 14.2654C11.652 15.0187 13.0587 15.012 13.9854 14.2054C14.5187 13.7254 14.832 13.0387 14.832 12.332C14.832 11.752 14.632 11.192 14.2654 10.752C13.792 10.1654 13.0854 9.83203 12.332 9.83203Z" fill="#660033"/>
<path d="M11.5872 13.5863C11.4205 13.5863 11.2538 13.4996 11.1605 13.3463C11.0205 13.1063 11.0938 12.7996 11.3338 12.6596L12.0272 12.2463V11.4062C12.0272 11.1329 12.2538 10.9062 12.5272 10.9062C12.8005 10.9062 13.0272 11.1329 13.0272 11.4062V12.5329C13.0272 12.7063 12.9338 12.8729 12.7872 12.9596L11.8472 13.5196C11.7605 13.5596 11.6738 13.5863 11.5872 13.5863Z" fill="#660033"/>
</svg>
