<svg width="37" height="48" viewBox="0 0 37 48" fill="none" xmlns="http://www.w3.org/2000/svg">
<path d="M35.7881 46.59H27.6591C26.9963 45.1959 24.4406 44.3072 22.2694 44.1441V37.5431C22.2694 35.9334 23.0813 33.7959 24.5869 33L24.7688 32.9062C27.5278 31.6706 29.4553 28.8909 29.4553 25.6678C29.4553 23.7637 29.19 22.1044 28.5947 20.2884L27.0637 15.6159C26.9691 15.3262 26.6981 15.1303 26.3934 15.1303H16.7372C16.4325 15.1303 16.1616 15.3262 16.0669 15.6159L14.5359 20.2884C13.9406 22.1053 13.6753 23.7637 13.6753 25.6678C13.6753 28.89 15.6019 31.6688 18.3581 32.9053L18.5363 32.9981C20.0447 33.7913 20.8575 35.9316 20.8575 37.5441V44.145C18.6872 44.3081 16.1334 45.1969 15.4706 46.5909H13.98C14.1797 45.7781 14.7947 44.715 16.5037 43.8562C17.3503 43.4306 18.3788 43.1016 19.4456 42.9066V38.9081H8.44781V29.9887H13.3247C12.6413 28.6791 12.2634 27.2034 12.2634 25.6697C12.2634 23.61 12.5503 21.8147 13.1944 19.8506L14.7253 15.1781C15.0113 14.3062 15.8194 13.7203 16.7372 13.7203H18.18C18.0647 13.2909 17.9681 12.8597 17.8931 12.4219H11.4169C11.205 13.6594 10.8338 14.8462 10.2806 16.0819L8.11687 20.9128C7.36031 22.6078 7.03781 24.3319 7.03781 26.6775V28.5778V40.3181V46.1259C7.03781 46.2872 7.06031 46.4419 7.09875 46.5909H0.705C0.315 46.5909 0 46.9069 0 47.2959C0 47.6859 0.315938 48.0009 0.705 48.0009H35.7891C36.1791 48.0009 36.4941 47.685 36.4941 47.2959C36.4941 46.9059 36.1781 46.59 35.7881 46.59ZM15.2119 23.6044C15.3347 22.65 15.5494 21.7256 15.8766 20.7272L17.2481 16.5412H25.8825L27.2541 20.7272C27.5812 21.7256 27.7969 22.65 27.9188 23.6044H15.2119Z" fill="#80011D"/>
<path d="M17.6761 1.29094C17.6761 0.579375 17.0977 0 16.3861 0H12.9248C12.2142 0 11.6367 0.579375 11.6367 1.29094V3.28406H17.677V1.29094H17.6761Z" fill="#80011D"/>
<path d="M17.6809 10.2838C17.6762 10.1056 17.6734 9.92469 17.6734 9.74469V4.69531H11.6331V9.74469C11.6331 9.94625 11.6303 10.1141 11.6237 10.2744L11.5938 11.0084H17.6997L17.6809 10.2838Z" fill="#80011D"/>
<path d="M14.6527 36.5981C15.8386 36.5981 16.8033 35.6334 16.8033 34.4475C16.8033 33.2616 15.8386 32.2969 14.6527 32.2969C13.4677 32.2969 12.5039 33.2616 12.5039 34.4475C12.5039 35.6334 13.4677 36.5981 14.6527 36.5981Z" fill="#80011D"/>
</svg>
