<svg width="432" height="406" viewBox="0 0 432 406" fill="none" xmlns="http://www.w3.org/2000/svg">
<path d="M277.715 137.541L312.881 91.4343C313.663 90.3598 314.151 89.0899 314.151 87.82L314.444 9.96532C314.444 6.2533 317.863 3.42045 321.478 4.10424L341.503 7.81624C344.336 8.30467 346.387 10.8445 346.387 13.6773V86.257C346.387 87.4292 346.68 88.6015 347.364 89.5783L368.562 121.814C369.245 122.791 369.538 123.963 369.538 125.233L366.706 314.937C366.706 318.258 369.343 320.993 372.664 320.993H421.214C424.535 320.993 427.172 318.356 427.172 315.034V176.127C427.172 175.052 426.879 173.978 426.293 173.001L410.761 147.603C410.175 146.626 409.882 145.552 409.882 144.477V88.3084C409.882 85.1825 407.342 82.6427 404.216 82.6427H392.787C390.052 82.6427 387.903 84.7918 387.903 87.5269V143.109C387.903 144.379 387.512 145.649 386.731 146.626L368.269 172.024" stroke="#C1272D" stroke-width="8" stroke-miterlimit="10"/>
<path d="M0 319.333H44.3488V233.469C44.3488 233.469 63.2996 223.309 82.7389 244.116C102.178 264.923 138.615 319.333 138.615 319.333H101.494V108.53L146.332 76.5871V230.831L202.207 319.236H176.125V18.8555L238.937 67.014V235.618H203.282V138.324L307.609 137.249C307.609 137.249 317.182 167.727 318.257 184.236C319.331 200.744 320.308 233.469 287.974 248.903C287.974 248.903 265.018 244.116 258.767 219.5C252.515 194.883 260.916 157.861 260.916 157.861" stroke="#C1272D" stroke-width="8" stroke-miterlimit="10"/>
<path d="M287.875 247.535V320.896" stroke="#C1272D" stroke-width="5" stroke-miterlimit="10"/>
<path d="M287.873 309.955L266.676 324.999H307.508L287.873 309.955Z" fill="#C1272D" stroke="#C1272D" stroke-miterlimit="10"/>
<path d="M423.459 214.52H368.268V254.668H423.459V214.52Z" fill="#C1272D"/>
<path d="M24.9587 358.445V404.552H19V358.445H24.9587Z" fill="#C1272D"/>
<path d="M35.8008 356.002H41.8572V404.551H35.8008V356.002Z" fill="#C1272D"/>
<path d="M55.2419 389.117C55.3396 397.224 60.6146 400.643 66.5733 400.643C72.5321 400.643 73.5089 399.862 75.7557 398.885L76.8302 403.183C74.6812 404.16 71.0668 405.235 65.7919 405.235C55.6327 405.235 49.4785 398.494 49.4785 388.531C49.4785 378.567 55.3396 370.654 65.0104 370.654C74.6811 370.654 78.6862 380.13 78.6862 386.284C78.6862 392.438 78.5886 388.433 78.4909 389.117H55.2419ZM72.9228 384.819C72.9228 381.009 71.3599 375.05 64.6196 375.05C57.8794 375.05 55.828 380.618 55.3396 384.819H72.9228Z" fill="#C1272D"/>
<path d="M140.327 381.009C140.327 396.834 130.656 405.332 118.934 405.332C107.212 405.332 98.2246 395.857 98.2246 381.986C98.2246 368.114 107.309 357.76 119.618 357.76C131.926 357.76 140.327 367.431 140.327 381.106V381.009ZM104.476 381.79C104.476 391.656 109.849 400.448 119.227 400.448C128.605 400.448 133.977 391.754 133.977 381.302C133.977 370.849 129.191 362.546 119.227 362.546C109.263 362.546 104.476 371.631 104.476 381.79Z" fill="#C1272D"/>
<path d="M156.247 361.963V371.438H164.844V376.03H156.247V393.906C156.247 398.009 157.42 400.353 160.741 400.353C164.062 400.353 163.476 400.158 164.258 399.962L164.551 404.456C163.378 404.944 161.522 405.237 159.178 405.237C156.834 405.237 154.098 404.358 152.633 402.697C150.875 400.939 150.289 398.009 150.289 394.101V376.03H145.111V371.438H150.289V363.526L156.15 361.963H156.247Z" fill="#C1272D"/>
<path d="M178.324 362.157C178.324 364.209 176.859 365.869 174.515 365.869C172.17 365.869 170.9 364.209 170.9 362.157C170.9 360.106 172.463 358.348 174.71 358.348C176.957 358.348 178.422 360.008 178.422 362.157H178.324ZM171.584 404.552V371.437H177.641V404.552H171.584Z" fill="#C1272D"/>
<path d="M202.258 358.445H208.217V399.571H227.949V404.552H202.258V358.445Z" fill="#C1272D"/>
<path d="M241.037 362.157C241.037 364.209 239.572 365.869 237.228 365.869C234.883 365.869 233.613 364.209 233.613 362.157C233.613 360.106 235.176 358.348 237.325 358.348C239.474 358.348 241.037 360.008 241.037 362.157ZM234.395 404.552V371.437H240.451V404.552H234.395Z" fill="#C1272D"/>
<path d="M250.318 380.423C250.318 377.004 250.318 374.171 250.025 371.436H255.3L255.593 376.808H255.789C257.645 373.683 260.673 370.752 266.143 370.752C271.614 370.752 274.056 373.487 275.521 377.394H275.619C276.693 375.538 277.963 374.073 279.331 373.096C281.284 371.631 283.531 370.752 286.657 370.752C289.783 370.752 297.5 373.585 297.5 385.112V404.649H291.639V385.893C291.639 379.544 289.295 375.734 284.41 375.734C279.526 375.734 278.354 378.274 277.279 381.204C276.986 381.986 276.791 383.158 276.791 384.232V404.649H270.93V384.819C270.93 379.544 268.585 375.734 263.994 375.734C259.403 375.734 257.449 378.762 256.57 381.79C256.277 382.669 256.082 383.744 256.082 384.721V404.649H250.221V380.52L250.318 380.423Z" fill="#C1272D"/>
<path d="M314.108 362.157C314.108 364.209 312.642 365.869 310.298 365.869C307.954 365.869 306.684 364.209 306.684 362.157C306.684 360.106 308.247 358.348 310.396 358.348C312.545 358.348 314.108 360.008 314.108 362.157ZM307.367 404.552V371.437H313.424V404.552H307.367Z" fill="#C1272D"/>
<path d="M330.617 361.963V371.438H339.213V376.03H330.617V393.906C330.617 398.009 331.789 400.353 335.11 400.353C338.431 400.353 337.845 400.158 338.627 399.962L338.92 404.456C337.748 404.944 335.892 405.237 333.547 405.237C331.203 405.237 328.467 404.358 327.002 402.697C325.244 400.939 324.658 398.009 324.658 394.101V376.03H319.48V371.438H324.658V363.526L330.519 361.963H330.617Z" fill="#C1272D"/>
<path d="M348.978 389.117C349.076 397.224 354.351 400.643 360.31 400.643C366.268 400.643 367.245 399.862 369.492 398.885L370.469 403.183C368.32 404.16 364.706 405.235 359.431 405.235C349.271 405.235 343.117 398.494 343.117 388.531C343.117 378.567 348.978 370.654 358.649 370.654C368.32 370.654 372.325 380.13 372.325 386.284C372.325 392.438 372.227 388.433 372.13 389.117H348.881H348.978ZM366.659 384.819C366.659 381.009 365.096 375.05 358.356 375.05C351.616 375.05 349.564 380.618 349.076 384.819H366.659Z" fill="#C1272D"/>
<path d="M408.47 356.002V396.053C408.47 398.983 408.47 402.304 408.763 404.649H403.39L403.097 398.885H403C401.144 402.597 397.139 405.43 391.668 405.43C383.658 405.43 377.504 398.69 377.504 388.629C377.504 377.59 384.244 370.85 392.352 370.85C400.46 370.85 400.851 373.292 402.316 375.93H402.413V356.197H408.47V356.002ZM402.413 384.917C402.413 384.135 402.414 383.158 402.12 382.377C401.241 378.567 397.92 375.441 393.426 375.441C388.933 375.441 383.463 380.912 383.463 388.238C383.463 395.564 386.784 400.448 393.231 400.448C399.678 400.448 400.948 397.811 402.023 393.22C402.218 392.438 402.316 391.559 402.316 390.582V384.819L402.413 384.917Z" fill="#C1272D"/>
</svg>
